<?xml version="1.0" encoding="UTF-8"?>
<svg width="44px" height="30px" viewBox="0 0 44 30" version="1.1" xmlns="http://www.w3.org/2000/svg" xmlns:xlink="http://www.w3.org/1999/xlink">
    <!-- Generator: Sketch 42 (36781) - http://www.bohemiancoding.com/sketch -->
    <title>cloud</title>
    <desc>Created with Sketch.</desc>
    <defs></defs>
    <g id="Page-1" stroke="none" stroke-width="1" fill="none" fill-rule="evenodd">
        <g id="cloud" transform="translate(-3.000000, -10.000000)" fill="#FFFFFF" fill-rule="nonzero">
            <path d="M21,10 C14.65,10 10,15.05 9.5,20.65 C5.7,22.05 3,25.7 3,30 C3,35.5 7.5,40 13,40 L37,40 C42.75,40 47,36 47,31 C47,27.2 44.6,23.5 40.85,22.3 C40.5,19.45 39.05,17.15 37,15.95 C35.05,14.8 32.75,14.55 30.6,15.2 C28.65,12.3 25.3,10 21,10 Z M21,13 C24.7,13 27.4,15.15 28.65,17.65 C29.05,18.4 29.95,18.7 30.65,18.3 C32.2,17.55 34,17.65 35.45,18.5 C36.9,19.35 37.95,20.95 37.95,23.45 C37.95,24.2 38.5,24.8 39.2,24.9 C41.95,25.35 43.95,28.15 43.95,30.95 C43.95,34.3 41.4,36.95 36.95,36.95 L12.95,36.95 C9.05,36.95 5.95,33.85 5.95,29.95 C5.95,26.65 8.2,23.95 11.25,23.15 C11.9,23 12.4,22.35 12.35,21.7 C12.35,17.35 15.95,13 21,13 Z"></path>
        </g>
    </g>
</svg>