<?xml version="1.0" encoding="utf-8"?>
<!-- Generator: Adobe Illustrator 20.1.0, SVG Export Plug-In . SVG Version: 6.00 Build 0)  -->
<svg version="1.1" id="Layer_1" xmlns="http://www.w3.org/2000/svg" xmlns:xlink="http://www.w3.org/1999/xlink" x="0px" y="0px"
	 viewBox="0 0 115.8 95.3" style="enable-background:new 0 0 115.8 95.3;" xml:space="preserve">
<style type="text/css">
	.st0{fill:#FFFFFF;}
</style>
<g transform="translate(0,-952.36218)">
	<path class="st0" d="M49.9,970c-12.7,0-22,10.1-23,21.3c-7.6,2.8-13,10.1-13,18.7c0,11,9,20,20,20h48c11.5,0,20-8,20-18
		c0-7.6-4.8-15-12.3-17.4c-0.7-5.7-3.6-10.3-7.7-12.7c-3.9-2.3-8.5-2.8-12.8-1.5C65.2,974.6,58.5,970,49.9,970z M49.9,976
		c7.4,0,12.8,4.3,15.3,9.3c0.8,1.5,2.6,2.1,4,1.3c3.1-1.5,6.7-1.3,9.6,0.4s5,4.9,5,9.9c0,1.5,1.1,2.7,2.5,2.9
		c5.5,0.9,9.5,6.5,9.5,12.1c0,6.7-5.1,12-14,12h-48c-7.8,0-14-6.2-14-14c0-6.6,4.5-12,10.6-13.6c1.3-0.3,2.3-1.6,2.2-2.9
		C32.6,984.7,39.8,976,49.9,976z"/>
</g>
</svg>
