<?xml version="1.0" encoding="utf-8"?>
<!-- Generator: Adobe Illustrator 20.1.0, SVG Export Plug-In . SVG Version: 6.00 Build 0)  -->
<svg version="1.1" id="Layer_1" xmlns="http://www.w3.org/2000/svg" xmlns:xlink="http://www.w3.org/1999/xlink" x="0px" y="0px"
	 viewBox="0 0 115.8 95.3" style="enable-background:new 0 0 115.8 95.3;" xml:space="preserve">
<style type="text/css">
	.st0{fill:#FFFFFF;}
</style>
<g>
	<path class="st0" d="M50.1,30.3c0,5.3-4.2,9.5-9.5,9.5s-9.5-4.2-9.5-9.5c0-5.2,4.3-9.5,9.5-9.5S50.1,25.1,50.1,30.3z"/>
	<path class="st0" d="M40.6,55.5c-5.2,0-9.5,4.3-9.5,9.5s4.3,9.5,9.5,9.5s9.5-4.3,9.5-9.5S45.8,55.5,40.6,55.5z"/>
	<path class="st0" d="M75.2,55.5c-5.2,0-9.5,4.3-9.5,9.5s4.3,9.5,9.5,9.5s9.5-4.3,9.5-9.5S80.5,55.5,75.2,55.5z"/>
	<path class="st0" d="M75.2,20.8c-5.2,0-9.5,4.3-9.5,9.5c0,5.3,4.3,9.5,9.5,9.5s9.5-4.2,9.5-9.5C84.7,25.1,80.5,20.8,75.2,20.8z"/>
	<path class="st0" d="M57.9,38.1c-5.3,0-9.5,4.3-9.5,9.5s4.3,9.5,9.5,9.5s9.5-4.3,9.5-9.5S63.1,38.1,57.9,38.1z"/>
</g>
</svg>
