<?xml version="1.0" encoding="UTF-8"?>
<svg width="44px" height="44px" viewBox="0 0 44 44" version="1.1" xmlns="http://www.w3.org/2000/svg" xmlns:xlink="http://www.w3.org/1999/xlink">
    <!-- Generator: Sketch 42 (36781) - http://www.bohemiancoding.com/sketch -->
    <title>cluster</title>
    <desc>Created with Sketch.</desc>
    <defs></defs>
    <g id="Page-1" stroke="none" stroke-width="1" fill="none" fill-rule="evenodd">
        <g id="cluster" transform="translate(-3.000000, -3.000000)" fill="#FFFFFF" fill-rule="nonzero">
            <path d="M18.5679702,10.7839851 C18.5679702,15.1266294 15.1266294,18.5679702 10.7839851,18.5679702 C6.44134078,18.5679702 3,15.1266294 3,10.7839851 C3,6.52327747 6.52327747,3 10.7839851,3 C15.0446927,3 18.5679702,6.52327747 18.5679702,10.7839851 Z M10.7839851,31.4320298 C15.0446927,31.4320298 18.5679702,34.9553073 18.5679702,39.2160149 C18.5679702,43.4767225 15.0446927,47 10.7839851,47 C6.52327747,47 3,43.4767225 3,39.2160149 C3,34.9553073 6.52327747,31.4320298 10.7839851,31.4320298 Z M39.1340782,31.4320298 C43.4767225,31.4320298 46.9180633,34.9553073 46.9180633,39.2160149 C46.9180633,43.4767225 43.3947858,47 39.1340782,47 C34.8733706,47 31.3500931,43.4767225 31.3500931,39.2160149 C31.3500931,34.9553073 34.8733706,31.4320298 39.1340782,31.4320298 Z M39.1340782,3 C43.4767225,3 46.9180633,6.52327747 46.9180633,10.7839851 C46.9180633,15.1266294 43.3947858,18.5679702 39.1340782,18.5679702 C34.8733706,18.5679702 31.3500931,15.1266294 31.3500931,10.7839851 C31.3500931,6.52327747 34.8733706,3 39.1340782,3 Z M24.9590317,17.1750466 C29.2197393,17.1750466 32.7430168,20.698324 32.7430168,24.9590317 C32.7430168,29.2197393 29.2197393,32.7430168 24.9590317,32.7430168 C20.698324,32.7430168 17.1750466,29.2197393 17.1750466,24.9590317 C17.1750466,20.698324 20.6163873,17.1750466 24.9590317,17.1750466 Z"></path>
        </g>
    </g>
</svg>