<?xml version="1.0" encoding="utf-8"?>
<!-- Generator: Adobe Illustrator 20.1.0, SVG Export Plug-In . SVG Version: 6.00 Build 0)  -->
<svg version="1.1" id="Layer_1" xmlns="http://www.w3.org/2000/svg" xmlns:xlink="http://www.w3.org/1999/xlink" x="0px" y="0px"
	 viewBox="0 0 115.8 95.3" style="enable-background:new 0 0 115.8 95.3;" xml:space="preserve">
<style type="text/css">
	.st0{fill:#FFFFFF;}
</style>
<g>
	<g>
		<path class="st0" d="M72.2,16.9L59.9,4.7c-1.1-1.1-3-1.1-4.1,0L43.6,16.9c-1.1,1.1-1.1,3,0,4.1l0,0c1.1,1.1,3,1.1,4.1,0l7.3-7.3
			v18c0,1.6,1.3,2.9,2.9,2.9l0,0c1.6,0,2.9-1.3,2.9-2.9v-18l7.3,7.3c1.1,1.1,3,1.1,4.1,0l0,0C73.3,19.9,73.3,18.1,72.2,16.9z"/>
		<path class="st0" d="M43.6,78.3l12.3,12.2c1.1,1.1,3,1.1,4.1,0l12.3-12.3c1.1-1.1,1.1-3,0-4.1l0,0c-1.1-1.1-3-1.1-4.1,0l-7.3,7.3
			v-18c0-1.6-1.3-2.9-2.9-2.9l0,0c-1.6,0-2.9,1.3-2.9,2.9v18l-7.3-7.3c-1.1-1.1-3-1.1-4.1,0l0,0C42.5,75.3,42.5,77.1,43.6,78.3z"/>
	</g>
	<g>
		<path class="st0" d="M27.2,33.3L15,45.6c-1.1,1.1-1.1,3,0,4.1L27.3,62c1.1,1.1,3,1.1,4.1,0l0,0c1.1-1.1,1.1-3,0-4.1l-7.3-7.3h18
			c1.6,0,2.9-1.3,2.9-2.9l0,0c0-1.6-1.3-2.9-2.9-2.9h-18l7.3-7.3c1.1-1.1,1.1-3,0-4.1l0,0C30.2,32.2,28.4,32.2,27.2,33.3z"/>
		<path class="st0" d="M88.6,61.9l12.2-12.3c1.1-1.1,1.1-3,0-4.1L88.6,33.3c-1.1-1.1-3-1.1-4.1,0l0,0c-1.1,1.1-1.1,3,0,4.1l7.3,7.3
			h-18c-1.6,0-2.9,1.3-2.9,2.9l0,0c0,1.6,1.3,2.9,2.9,2.9h18l-7.3,7.3c-1.1,1.1-1.1,3,0,4.1l0,0C85.6,63,87.4,63,88.6,61.9z"/>
	</g>
</g>
</svg>
