<?xml version="1.0" encoding="UTF-8"?>
<svg width="44px" height="44px" viewBox="0 0 44 44" version="1.1" xmlns="http://www.w3.org/2000/svg" xmlns:xlink="http://www.w3.org/1999/xlink">
    <!-- Generator: Sketch 42 (36781) - http://www.bohemiancoding.com/sketch -->
    <title>extend</title>
    <desc>Created with Sketch.</desc>
    <defs></defs>
    <g id="Page-1" stroke="none" stroke-width="1" fill="none" fill-rule="evenodd">
        <g id="extend" transform="translate(-3.000000, -3.000000)" fill="#FFFFFF" fill-rule="nonzero">
            <path d="M31.7214051,9.96885978 C32.309946,10.6109044 32.309946,11.5739714 31.7214051,12.1625124 C31.1328641,12.7510533 30.1162934,12.7510533 29.5277525,12.1625124 L26.157018,8.51853756 L26.157018,17.3523734 C26.157018,18.208433 25.4614696,18.9039813 24.6054101,18.9039813 C23.7493505,18.9039813 23.0538021,18.208433 23.0538021,17.3523734 L23.0538021,8.51853756 L19.6830676,12.1625124 C19.0945267,12.7510533 18.077956,12.7510533 17.489415,12.1625124 C16.9008741,11.5739714 16.9008741,10.5574007 17.489415,9.96885978 L23.4818319,3.44140571 C24.0703728,2.85286476 25.0869435,2.85286476 25.6754845,3.44140571 L31.7214051,9.96885978 Z M40.0311402,31.7214051 C39.3890956,32.309946 38.4260286,32.309946 37.8374876,31.7214051 C37.2489467,31.1328641 37.2489467,30.1162934 37.8374876,29.5277525 L41.4814624,26.157018 L32.6476266,26.157018 C31.791567,26.157018 31.0960187,25.4614696 31.0960187,24.6054101 C31.0960187,23.7493505 31.791567,23.0538021 32.6476266,23.0538021 L41.4814624,23.0538021 L37.8374876,19.6830676 C37.2489467,19.0945267 37.2489467,18.077956 37.8374876,17.489415 C38.4260286,16.9008741 39.4425993,16.9008741 40.0311402,17.489415 L46.5585943,23.4818319 C47.1471352,24.0703728 47.1471352,25.0869435 46.5585943,25.6754845 L40.0311402,31.7214051 Z M9.96885978,31.7214051 L3.44140571,25.6754845 C2.85286476,25.0869435 2.85286476,24.0703728 3.44140571,23.4818319 L9.96885978,17.489415 C10.5574007,16.9008741 11.5739714,16.9008741 12.1625124,17.489415 C12.7510533,18.077956 12.7510533,19.0945267 12.1625124,19.6830676 L8.51853756,23.0538021 L17.3523734,23.0538021 C18.208433,23.0538021 18.9039813,23.7493505 18.9039813,24.6054101 C18.9039813,25.4614696 18.208433,26.157018 17.3523734,26.157018 L8.51853756,26.157018 L12.1625124,29.5277525 C12.7510533,30.1162934 12.7510533,31.1328641 12.1625124,31.7214051 C11.5739714,32.309946 10.6109044,32.309946 9.96885978,31.7214051 Z M31.7214051,40.0311402 L25.6754845,46.5585943 C25.0869435,47.1471352 24.0703728,47.1471352 23.4818319,46.5585943 L17.489415,40.0311402 C16.9008741,39.4425993 16.9008741,38.4260286 17.489415,37.8374876 C18.077956,37.2489467 19.0945267,37.2489467 19.6830676,37.8374876 L23.0538021,41.4814624 L23.0538021,32.6476266 C23.0538021,31.791567 23.7493505,31.0960187 24.6054101,31.0960187 C25.4614696,31.0960187 26.157018,31.791567 26.157018,32.6476266 L26.157018,41.4814624 L29.5277525,37.8374876 C30.1162934,37.2489467 31.1328641,37.2489467 31.7214051,37.8374876 C32.309946,38.4260286 32.309946,39.3890956 31.7214051,40.0311402 Z"></path>
        </g>
    </g>
</svg>