<?xml version="1.0" encoding="UTF-8"?>
<svg width="36px" height="44px" viewBox="0 0 36 44" version="1.1" xmlns="http://www.w3.org/2000/svg" xmlns:xlink="http://www.w3.org/1999/xlink">
    <!-- Generator: Sketch 42 (36781) - http://www.bohemiancoding.com/sketch -->
    <title>shield</title>
    <desc>Created with Sketch.</desc>
    <defs></defs>
    <g id="Page-1" stroke="none" stroke-width="1" fill="none" fill-rule="evenodd">
        <g id="shield" transform="translate(-7.000000, -3.000000)" fill="#FFFFFF" fill-rule="nonzero">
            <path d="M41.0602788,14.7465404 C34.0625695,13.2470312 26.7078343,4.89262324 26.6364291,4.74981285 C26.6364291,4.74981285 24.958407,3 24.9227044,3 C24.958407,3 23.2089796,4.74981285 23.2089796,4.74981285 C23.1375744,4.82121804 15.7828392,13.2470312 8.78512992,14.7465404 C7,14.7465404 7,14.7465404 7,17.0315067 C7.14281039,30.3128733 18.2749434,47 24.9227044,47 C31.5704653,47 42.7025983,30.3128733 42.9168139,17.0315067 C42.9168139,14.7465404 42.9168139,14.7465404 41.0602788,14.7465404 Z M11.5699326,18.7452314 C15.7828392,17.3171275 19.7815302,14.3181092 22.5663329,11.8189273 L22.5663329,40.6666268 L22.5663329,40.6666268 C17.6393743,38.3816605 12.2839846,29.1703901 11.5699326,18.7452314 Z M27.2076707,40.6666268 L27.2076707,11.8189273 C29.9924733,14.3181092 33.9911643,17.3171275 38.2754761,18.7452314 C37.5614242,29.1703901 32.2060344,38.3816605 27.2076707,40.6666268 Z"></path>
        </g>
    </g>
</svg>