<?xml version="1.0" encoding="utf-8"?>
<!-- Generator: Adobe Illustrator 20.1.0, SVG Export Plug-In . SVG Version: 6.00 Build 0)  -->
<svg version="1.1" id="Layer_1" xmlns="http://www.w3.org/2000/svg" xmlns:xlink="http://www.w3.org/1999/xlink" x="0px" y="0px"
	 viewBox="0 0 115.8 95.3" style="enable-background:new 0 0 115.8 95.3;" xml:space="preserve">
<style type="text/css">
	.st0{fill:#FFFFFF;}
</style>
<path class="st0" d="M80.5,33.4c-9.8-2.1-20.1-13.8-20.2-14c-0.6-0.7-1.5-1.1-2.4-1.1l0,0c-0.9,0-1.8,0.4-2.4,1.1
	c-0.1,0.1-10.4,11.9-20.2,14c-1.5,0.3-2.6,1.7-2.5,3.2C33,55.2,44,76.9,57.9,76.9s24.9-21.7,25.2-40.3C83.1,35.1,82,33.7,80.5,33.4z
	 M39.2,39c5.9-2,11.5-6.2,15.4-9.7v40.4l0,0C47.7,66.5,40.2,53.6,39.2,39z M61.1,69.7L61.1,69.7V29.3C65,32.8,70.6,37,76.6,39
	C75.6,53.6,68.1,66.5,61.1,69.7z"/>
</svg>
