<?xml version="1.0" encoding="UTF-8"?>
<svg width="44px" height="34px" viewBox="0 0 44 34" version="1.1" xmlns="http://www.w3.org/2000/svg" xmlns:xlink="http://www.w3.org/1999/xlink">
    <!-- Generator: Sketch 42 (36781) - http://www.bohemiancoding.com/sketch -->
    <title>speed</title>
    <desc>Created with Sketch.</desc>
    <defs></defs>
    <g id="Page-1" stroke="none" stroke-width="1" fill="none" fill-rule="evenodd">
        <g id="speed" transform="translate(-3.000000, -8.000000)" fill="#FFFFFF">
            <path d="M47,28.9299304 C47,29.875916 46.1875,30.5854051 45.25,30.5854051 L40.0625,30.5854051 C39.0625,30.5854051 38.25,29.8167919 38.25,28.8708063 L38.25,28.8116822 C38.25,27.8656967 39.0625,27.0970834 40.0625,27.0970834 L43.1875,27.0970834 C42.8125,23.6678858 41.375,20.5343086 39.1875,17.9919724 L37.125,19.9430676 C36.375,20.6525568 35.1875,20.6525568 34.5,19.9430676 C33.75,19.2335785 33.75,18.1102206 34.5,17.4598556 L36.5625,15.5087603 C33.875,13.4394169 30.5625,12.0795627 26.9375,11.7248181 L26.9375,14.6218989 C26.9375,15.5678844 26.125,16.3956218 25.0625,16.3956218 L25,16.3956218 C23.9375,16.3956218 23.125,15.6270085 23.125,14.6218989 L23.125,11.7248181 C19.5,12.0795627 16.1875,13.4394169 13.5,15.5087603 L15.5625,17.4598556 C16.3125,18.1693447 16.3125,19.2927026 15.5625,19.9430676 L15.5,20.0021917 C14.8125,20.6525568 13.625,20.6525568 12.9375,20.0021917 L10.8125,17.9919724 C8.625,20.5343086 7.1875,23.6678858 6.8125,27.0970834 L9.9375,27.0970834 C10.9375,27.0970834 11.75,27.8656967 11.75,28.8116822 L11.75,28.8708063 C11.75,29.8167919 10.9375,30.5854051 9.9375,30.5854051 L4.75,30.5854051 C3.75,30.5854051 3,29.875916 3,28.9299304 C3,17.4007315 12.9375,8 25.125,8 C37.3125,8 47,17.4007315 47,28.9299304 Z M18.0514706,32.4548733 L28.989442,24.1826192 C30.3506686,23.2808764 30.8450331,23.0287666 32.3828887,22.6240562 C32.3828887,24.2939909 32.0743217,24.6934243 31.6921963,25.8720998 L25.5147059,38.4260045 C25.2573529,38.9396501 24.9356618,39.3890901 24.5496324,39.7743244 C20.5606618,44.076107 13.6121324,38.5544159 16.9577206,33.7389876 C17.2794118,33.2895476 17.6654412,32.8401076 18.0514706,32.4548733 Z M21.1029412,38.6952804 C22.5242622,38.6952804 23.6764706,37.5454454 23.6764706,36.127052 C23.6764706,34.7086586 22.5242622,33.5588235 21.1029412,33.5588235 C19.6816201,33.5588235 18.5294118,34.7086586 18.5294118,36.127052 C18.5294118,37.5454454 19.6816201,38.6952804 21.1029412,38.6952804 Z"></path>
        </g>
    </g>
</svg>