<?xml version="1.0" encoding="utf-8"?>
<!-- Generator: Adobe Illustrator 20.1.0, SVG Export Plug-In . SVG Version: 6.00 Build 0)  -->
<svg version="1.1" id="Layer_1" xmlns="http://www.w3.org/2000/svg" xmlns:xlink="http://www.w3.org/1999/xlink" x="0px" y="0px"
	 viewBox="0 0 115.8 95.3" style="enable-background:new 0 0 115.8 95.3;" xml:space="preserve">
<style type="text/css">
	.st0{fill:#FFFFFF;}
</style>
<path class="st0" d="M66,45L47.3,60.5c-0.6,0.6-1.2,1.3-1.7,2c-5.2,7.5,5.6,16.1,11.8,9.4c0.6-0.6,1.1-1.3,1.5-2.1L70,48.2
	C71.5,45.6,68.2,42.9,66,45 M93.3,56.3L93.3,56.3c0,1.6-1.3,2.8-2.8,2.8h-8.3c-1.6,0-2.9-1.3-2.9-2.9v-0.1c0-1.6,1.3-2.9,2.9-2.9h5
	c-0.6-5.8-2.9-11.1-6.4-15.4l-3.3,3.3c-1.2,1.2-3.1,1.2-4.2,0l0,0c-1.2-1.2-1.2-3.1,0-4.2l3.3-3.3c-4.3-3.5-9.6-5.8-15.4-6.4v4.9
	c0,1.6-1.3,3-3,3h-0.1c-1.7,0-3-1.3-3-3v-4.9c-5.8,0.6-11.1,2.9-15.4,6.4l3.3,3.3c1.2,1.2,1.2,3.1,0,4.2l-0.1,0.1
	c-1.1,1.1-3,1.1-4.1,0l-3.4-3.4c-3.5,4.3-5.8,9.6-6.4,15.4h5c1.6,0,2.9,1.3,2.9,2.9v0.1c0,1.6-1.3,2.9-2.9,2.9h-8.3
	c-1.6,0-2.8-1.2-2.8-2.8l0,0c0-19.5,15.9-35.4,35.4-35.4S93.3,36.8,93.3,56.3"/>
</svg>
